# xmcd
#
# Track frame offsets:
#	150
#	11061
#	25419
#	33222
#	46549
#	54974
#	64959
#	70772
#	77081
#	83134
#	97572
#	105965
#	118288
#	125740
#	131362
#	138495
#	149582
#	162370
#	167631
#	180568
#	186333
#	190410
#	197514
#	200864
#	207949
#	220540
#	224497
#	229615
#	235230
#	243744
#	253909
#	259805
#	266251
#	269189
#	271724
#	276750
#	281278
#	289333
#	297134
#	302353
#	307456
#	310820
#	311618
#	320771
#	331533
#	337280
#
# Disc length: 4626 seconds
#
# Revision: 1
# Processed by: cddbd v1.5.2PL0 Copyright (c) Steve Scherf et al.
# Submitted via: audiograbber 1.83.01
#
DISCID=c012102e
DTITLE=Shelor-Blackard Family - FRC112 The Shelor-Blackard Family
DYEAR=2009
DGENRE=Old-Time
TTITLE0=Susanna Gal 
TTITLE1=Susanna Gal (1927) 
TTITLE2=Sandy River Belle 
TTITLE3=Sandy River Belle (1927)
TTITLE4=Flying Indian 
TTITLE5=Coon Dog 
TTITLE6=Watermelon Vine 
TTITLE7=Flop Eared Mule 
TTITLE8=Untitled Tune ("Polly put the Kettle on" family) 
TTITLE9=Ten Thousand Charms 
TTITLE10=Billy Grimes the Rover 
TTITLE11=Billy Grimes the Rover (1927) 
TTITLE12=Talk (the family band) 
TTITLE13=Callahan 
TTITLE14=Rich Mountain 
TTITLE15=There's a Lock on the Chicken Coop Door
TTITLE16=There's a Lock on the Chicken Coop Door (1920) 
TTITLE17=Yellow Rose of Texas 
TTITLE18=In the Shadow of the Rock 
TTITLE19=Old Aunt Katie 
TTITLE20=Yellow Cat 
TTITLE21=Put your Foot down 
TTITLE22=Big Ben Gal (instrumental) 
TTITLE23=Big Ben Gal (Clarice singing) 
TTITLE24=Big Ben Gal (1927) 
TTITLE25=Old Joe Clark 
TTITLE26=Arkansas Traveler 
TTITLE27=Whistling Rufus 
TTITLE28=Iowna (Clarice singing) 
TTITLE29=Sally Ann 
TTITLE30=Under the Double eagle 
TTITLE31=Clog Dance 
TTITLE32=Sourwood Mountain 
TTITLE33=Fire on the Mountain 
TTITLE34=Billy Grimes the Rover 
TTITLE35=Old Richmond 
TTITLE36=Sally 
TTITLE37=There was an Old Woman 
TTITLE38=Iowna (Piano version) 
TTITLE39=Talk 
TTITLE40=Sweet Sixteen 
TTITLE41=Sweet Sixteen (words) 
TTITLE42=Hell Broke Loose in Georgia 
TTITLE43=Mississippi Sawyer 
TTITLE44=Callahan 
TTITLE45=Wonderful Love 
EXTD=
EXTT0=
EXTT1=
EXTT2=
EXTT3=
EXTT4=
EXTT5=
EXTT6=
EXTT7=
EXTT8=
EXTT9=
EXTT10=
EXTT11=
EXTT12=
EXTT13=
EXTT14=
EXTT15=
EXTT16=
EXTT17=
EXTT18=
EXTT19=
EXTT20=
EXTT21=
EXTT22=
EXTT23=
EXTT24=
EXTT25=
EXTT26=
EXTT27=
EXTT28=
EXTT29=
EXTT30=
EXTT31=
EXTT32=
EXTT33=
EXTT34=
EXTT35=
EXTT36=
EXTT37=
EXTT38=
EXTT39=
EXTT40=
EXTT41=
EXTT42=
EXTT43=
EXTT44=
EXTT45=
PLAYORDER=
